<?xml version="1.0" encoding="utf-8"?>
<!-- Generator: Adobe Illustrator 21.1.0, SVG Export Plug-In . SVG Version: 6.00 Build 0)  -->
<svg version="1.1" baseProfile="tiny" id="Layer_1" xmlns="http://www.w3.org/2000/svg" xmlns:xlink="http://www.w3.org/1999/xlink"
	 x="0px" y="0px" viewBox="0 0 34 32" xml:space="preserve">
<path fill="#4B576E" d="M17,20.8L17,20.8z M5.7,3.2l2,23l9.2,2.6l9.2-2.6l2.1-23C28.3,3.2,5.7,3.2,5.7,3.2z M24,8.5l-0.7,7.8l0,0
	l-0.5,5.4l0,0.5L17,23.7l-5.8-1.6l-0.4-4.4h2.8l0.2,2.2l3.1,0.8l0,0h0l3.1-0.8l0.3-3.7h-6.6l-0.1-0.6l-0.1-1.4l-0.1-0.8h7.1l0.3-2.9
	H10.2l-0.1-0.6L10,8.5L10,7.7h14.1L24,8.5L24,8.5z"/>
</svg>
