<?xml version="1.0" encoding="utf-8"?>
<!-- Generator: Adobe Illustrator 21.1.0, SVG Export Plug-In . SVG Version: 6.00 Build 0)  -->
<svg version="1.1" baseProfile="tiny" id="Layer_1" xmlns="http://www.w3.org/2000/svg" xmlns:xlink="http://www.w3.org/1999/xlink"
	 x="0px" y="0px" viewBox="0 0 34 32" xml:space="preserve">
<path fill="#4B576E" d="M17,5.1c-6.2,0-11.2,5-11.2,11.2c0,5,3.2,9.2,7.7,10.6c0.6,0.1,0.8-0.2,0.8-0.5c0-0.3,0-1.2,0-2.1
	C11.1,25,10.4,23,10.4,23c-0.5-1.3-1.2-1.6-1.2-1.6c-1-0.7,0.1-0.7,0.1-0.7c1.1,0.1,1.7,1.2,1.7,1.2c1,1.7,2.6,1.2,3.3,0.9
	c0.1-0.7,0.4-1.2,0.7-1.5C12.5,21,9.8,20,9.8,15.7c0-1.2,0.4-2.2,1.2-3c-0.1-0.3-0.5-1.4,0.1-3c0,0,0.9-0.3,3.1,1.1
	c0.9-0.2,1.9-0.4,2.8-0.4c1,0,1.9,0.1,2.8,0.4c2.1-1.5,3.1-1.1,3.1-1.1c0.6,1.5,0.2,2.7,0.1,3c0.7,0.8,1.2,1.8,1.2,3
	c0,4.3-2.6,5.3-5.1,5.5c0.4,0.3,0.8,1,0.8,2.1c0,1.5,0,2.7,0,3.1c0,0.3,0.2,0.6,0.8,0.5c4.5-1.5,7.7-5.7,7.7-10.6
	C28.2,10.1,23.2,5.1,17,5.1L17,5.1z"/>
</svg>
