<?xml version="1.0" encoding="utf-8"?>
<!-- Generator: Adobe Illustrator 24.1.0, SVG Export Plug-In . SVG Version: 6.00 Build 0)  -->
<svg version="1.1" id="Layer_1" xmlns="http://www.w3.org/2000/svg" xmlns:xlink="http://www.w3.org/1999/xlink" x="0px" y="0px"
	 viewBox="0 0 34 32" style="enable-background:new 0 0 34 32;" xml:space="preserve">
<style type="text/css">
	.st0{fill-rule:evenodd;clip-rule:evenodd;fill:#4B576E;}
</style>
<path class="st0" d="M19.2,6.1l5.3,3.1C24.6,9,24.8,8.8,25,8.7c1.1-0.6,2.5-0.3,3.1,0.8c0.6,1.1,0.3,2.5-0.8,3.1
	c-0.2,0.1-0.4,0.2-0.6,0.2v6.1c0.2,0.1,0.4,0.1,0.6,0.2c1.1,0.6,1.5,2,0.8,3.1c-0.6,1.1-2,1.5-3.1,0.8c-0.2-0.1-0.4-0.3-0.6-0.5
	l-5.3,3c0.1,0.2,0.1,0.5,0.1,0.7c0,1.3-1,2.3-2.3,2.3c-1.3,0-2.3-1-2.3-2.3c0-0.2,0-0.4,0.1-0.6l-5.3-3.1C9.4,23,9.2,23.2,9,23.3
	c-1.1,0.6-2.5,0.3-3.1-0.8c-0.6-1.1-0.3-2.5,0.8-3.1c0.2-0.1,0.4-0.2,0.6-0.2v-6.1c-0.2-0.1-0.4-0.1-0.6-0.2c-1.1-0.6-1.5-2-0.8-3.1
	s2-1.5,3.1-0.8C9.2,8.8,9.4,9,9.5,9.1l5.3-3.1c-0.1-0.2-0.1-0.4-0.1-0.7c0-1.3,1-2.3,2.3-2.3s2.3,1,2.3,2.3
	C19.3,5.7,19.3,5.9,19.2,6.1L19.2,6.1z M18.6,7l5.3,3.1c-0.2,0.6-0.1,1.2,0.2,1.8c0.3,0.6,0.8,0.9,1.4,1.1v6.1c0,0-0.1,0-0.1,0
	L18.6,7C18.6,7.1,18.6,7,18.6,7L18.6,7z M15.4,7.1l-6.9,12c0,0-0.1,0-0.1,0v-6.1c0.6-0.1,1.1-0.5,1.4-1.1c0.3-0.5,0.4-1.2,0.2-1.8
	L15.4,7.1C15.4,7,15.4,7.1,15.4,7.1L15.4,7.1z M17.6,7.6l6.9,12c-0.2,0.2-0.3,0.3-0.4,0.5c-0.1,0.2-0.2,0.4-0.2,0.6H10.1
	c-0.1-0.2-0.1-0.4-0.2-0.6c-0.1-0.2-0.2-0.4-0.4-0.5l6.9-12c0.2,0.1,0.4,0.1,0.6,0.1C17.2,7.7,17.4,7.7,17.6,7.6z M18.7,25l5.3-3
	c0,0,0-0.1,0-0.2H10.1c0,0,0,0.1,0,0.1l5.3,3.1c0.4-0.4,1-0.7,1.7-0.7C17.6,24.3,18.3,24.5,18.7,25L18.7,25z"/>
</svg>
