<?xml version="1.0" encoding="utf-8"?>
<!-- Generator: Adobe Illustrator 21.1.0, SVG Export Plug-In . SVG Version: 6.00 Build 0)  -->
<svg version="1.1" baseProfile="tiny" id="Layer_1" xmlns="http://www.w3.org/2000/svg" xmlns:xlink="http://www.w3.org/1999/xlink"
	 x="0px" y="0px" viewBox="0 0 34 32" xml:space="preserve">
<path fill="#4B576E" d="M5.7,3.1l2.1,23.2l9.3,2.6l9.3-2.6l2.1-23.2L5.7,3.1L5.7,3.1z M10,8.6L9.9,7.9H17v2.8h-4l0.3,2.9H17v2.8
	h-6.3L10,8.6L10,8.6z M23.5,14.4l-0.7,7.5l0,0.5L17,24l-5.8-1.6l-0.4-4.5h2.8l0.2,2.3L17,21l3.2-0.9l0.3-3.7H17v-2.8h6.6L23.5,14.4
	L23.5,14.4z M24,8.6l-0.1,1.4l-0.1,0.6H17V7.9h7.1L24,8.6z"/>
</svg>
