<?xml version="1.0" encoding="utf-8"?>
<!-- Generator: Adobe Illustrator 21.1.0, SVG Export Plug-In . SVG Version: 6.00 Build 0)  -->
<svg version="1.1" baseProfile="tiny" id="Layer_1" xmlns="http://www.w3.org/2000/svg" xmlns:xlink="http://www.w3.org/1999/xlink"
	 x="0px" y="0px" viewBox="0 0 34 32" xml:space="preserve">
<g>
	<path fill="#4B576E" d="M21.9,11.2c0.7,0,1.3-0.6,1.3-1.3s-0.6-1.3-1.3-1.3c-0.7,0-1.3,0.6-1.3,1.3C20.6,10.6,21.2,11.2,21.9,11.2z
		"/>
	<path fill="#4B576E" d="M20.6,12.3H23v9.2h-2.4V12.3z"/>
	<path fill="#4B576E" d="M12.9,18.4h3.3l0.9,3.1h2.5L15.9,9.4h-3v1.2L9.7,21.4H12L12.9,18.4z M14.5,11.5l1.2,4.7h-2.4L14.5,11.5z"/>
	<path fill="#4B576E" d="M3.2,2.5v27h27.6v-27C30.8,2.5,3.2,2.5,3.2,2.5z M28.7,27.4H5.3V4.6h23.4V27.4z"/>
</g>
</svg>
