<?xml version="1.0" encoding="utf-8"?>
<!-- Generator: Adobe Illustrator 21.1.0, SVG Export Plug-In . SVG Version: 6.00 Build 0)  -->
<svg version="1.1" baseProfile="tiny" id="Layer_1" xmlns="http://www.w3.org/2000/svg" xmlns:xlink="http://www.w3.org/1999/xlink"
	 x="0px" y="0px" viewBox="0 0 34 32" xml:space="preserve">
<path fill="#4B576E" d="M4.2,3.2v25.6h25.6V3.2C29.8,3.2,4.2,3.2,4.2,3.2z M17.6,25.1c-0.4,0.8-1.1,1.3-1.9,1.5
	c-1.3,0.3-2.5,0.1-3.4-0.4c-0.6-0.4-1.1-1-1.4-1.6c0.6-0.4,1.3-0.8,1.9-1.2c0,0,0.1,0.1,0.1,0.2c0.2,0.4,0.5,0.7,0.9,0.9
	c0.4,0.1,1.3,0.2,1.7-0.5c0.2-0.4,0.1-1.6,0.1-2.9c0-2.1,0-4.1,0-6.2H18c0,2.2,0,4.4,0,6.6C18,22.9,18.1,24.1,17.6,25.1L17.6,25.1z
	 M27.5,24.4c-0.8,2.8-5.5,2.9-7.3,1.1c-0.4-0.4-0.6-0.7-0.9-1.2c1-0.6,1-0.6,1.9-1.1c0.5,0.8,1,1.2,1.9,1.4c1.2,0.1,2.4-0.3,2.1-1.5
	c-0.3-1-2.4-1.3-3.9-2.4c-1.5-1-1.8-3.4-0.6-4.8c0.4-0.5,1.1-0.9,1.8-1.1c0.3,0,0.5-0.1,0.8-0.1c1.4,0,2.4,0.4,3,1.1
	c0.2,0.2,0.3,0.4,0.6,0.8c-0.8,0.5-0.8,0.5-1.9,1.2c-0.2-0.5-0.6-0.8-1-1c-0.6-0.2-1.5,0-1.6,0.7c-0.1,0.2,0,0.4,0,0.7
	c0.3,0.6,1.1,0.9,1.9,1.2c2.3,0.9,3,1.9,3.2,3.1C27.8,23.7,27.5,24.3,27.5,24.4L27.5,24.4z"/>
</svg>
