<?xml version="1.0" encoding="utf-8"?>
<!-- Generator: Adobe Illustrator 21.1.0, SVG Export Plug-In . SVG Version: 6.00 Build 0)  -->
<svg version="1.1" id="Layer_1" xmlns="http://www.w3.org/2000/svg" xmlns:xlink="http://www.w3.org/1999/xlink" x="0px" y="0px"
	 viewBox="0 0 256 240.4" style="enable-background:new 0 0 256 240.4;" xml:space="preserve">
<style type="text/css">
	.st0{fill:#4B576E;stroke:#4B576E;stroke-width:9.375000e-02;}
	.st1{opacity:0.85;fill:#4B576E;stroke:#4B576E;stroke-width:9.375000e-02;}
</style>
<g>
	<g>
		<path class="st0" d="M63.2,58.9c0.9-1.6,2.1-3.1,3.9-3.8c0.7-0.1,1.4-0.1,2.1-0.1h35c-1,0.9-2,1.8-2.7,2.9c-1.8,2.9-3,6.2-4.1,9.5
			c-3.1,9.9-5.3,20-7.5,30.2c-1,4.6-1.9,9.2-2.7,13.8c-2.7,15.1-5.4,30.1-8.8,45c-1.6,6.9-3.3,13.8-5.8,20.4
			c-1.2,2.7-2.3,5.7-4.6,7.7c-0.5,0.5-1,1-1.8,1H35.2c-2.1-0.1-4.2,0.1-6.3-0.1c1.4-1.1,2.6-2.4,3.4-3.9c2.3-4.4,3.8-9.2,5.2-14
			c2.2-7.7,3.9-15.4,5.5-23.2c1-5.1,2.2-10.2,3-15.3c0.8-5.7,2.1-11.4,3.1-17c1.6-8.4,3.3-16.7,5.2-25c1.5-6.5,3.1-12.9,5.1-19.3
			C60.5,64.7,61.6,61.7,63.2,58.9z"/>
		<path class="st1" d="M104.1,55c0.9,0,1.8,0,2.7,0c2,1,3.6,2.7,4.6,4.8c1.2,2.3,2.3,4.8,3.2,7.3c3.1,9.5,5.2,19.4,7.3,29.2
			c1.8,8.8,3.5,17.6,5.1,26.4c0.1,0.5,0,1.1,0.6,1.2c-2.2,11.6-4.4,23.3-7.2,34.8c-1.5,6.2-3.1,12.4-5.4,18.4
			c-1.2,3-2.5,6.3-5.1,8.4c-1.7,0.4-2.9-0.9-3.9-2c-1.8-2.3-2.8-4.9-3.9-7.6c-3.5-9.5-5.6-19.4-7.8-29.3c-1.6-7.7-3.1-15.4-4.6-23.2
			c-0.7-3.9-1.6-7.8-2.1-11.7c-0.1-0.1-0.3-0.2-0.4-0.2c0.9-4.6,1.8-9.2,2.7-13.8c2.1-10.2,4.3-20.3,7.5-30.2
			c1.1-3.3,2.3-6.5,4.1-9.5C102.1,56.8,103.1,55.9,104.1,55z"/>
		<path class="st0" d="M142.8,60.4c1.1-2.1,2.5-4.5,4.9-5.3c12.3-0.1,24.5,0,36.8,0c-1.1,1.1-2.3,2.3-3.1,3.7
			c-2.4,4.3-3.8,9-5.2,13.6c-3.6,12.8-6.2,26-8.6,39.1c-2.3,12.9-4.7,25.9-7.4,38.8c-1.4,6.5-2.9,12.9-4.8,19.3
			c-1.2,4-2.5,7.9-4.4,11.6c-1,1.7-2.1,3.5-3.9,4.4c-11.7,0.1-23.4,0-35.1,0c-0.6,0-1.3,0-2-0.1c2.6-2.1,3.9-5.4,5.1-8.4
			c2.3-6,3.9-12.2,5.4-18.4c2.8-11.5,5-23.2,7.2-34.8c2.7-15,5.5-30,9.1-44.7C138.3,72.8,139.9,66.3,142.8,60.4z"/>
		<path class="st1" d="M184.4,55c1,0,2,0,3,0c1.6,0.8,2.7,2.3,3.8,3.7c1.7,2.7,2.7,5.7,3.8,8.6c2.6,7.9,4.5,16,6.2,24.1
			c2.3,10.9,4.4,21.9,6.4,32.8c0.5,2.6,1,5.3,1.3,7.9c0.1,0.1,0.4,0.4,0.5,0.5c-1.1,1.5-1.5,3.4-2.2,5.2c-1.9,6.3-3.2,12.8-4.3,19.2
			c-0.8,5.1-2,10.1-3.6,15c-1.2,3.6-2.6,7.2-4.9,10.2c-1.1,1.5-2.6,2.6-4.3,3.3c-2.6,0.3-4.1-2.2-5.3-4c-2.6-4.5-4-9.5-5.4-14.4
			c-4.9-18.1-8.1-36.6-11.5-54.9c0-0.3-0.2-0.5-0.4-0.6c2.4-13.1,5-26.2,8.6-39.1c1.4-4.7,2.8-9.4,5.2-13.6
			C182.1,57.3,183.3,56.2,184.4,55z"/>
		<path class="st1" d="M0,125.3c0.8-0.1,1.6-0.2,2.4-0.2h33.7c1.4,0.2,2.9,0.1,4.3,0.7c2,0.8,3.7,2.2,5,3.9c0.2-0.1,0.4-0.3,0.6-0.5
			c-0.7,5.1-1.9,10.2-3,15.3c-1.6,7.8-3.4,15.5-5.5,23.2c-1.4,4.8-2.8,9.5-5.2,14c-0.8,1.5-2,2.8-3.4,3.9c-0.5,0.1-0.9-0.3-1.4-0.6
			c-1.5-0.9-2.3-2.5-3.2-4c-4.2-9.6-4.7-20.3-7.3-30.4c-1.3-5-3-10-5.4-14.7c-1.5-2.8-3.3-5.4-5.7-7.6C4.3,126.9,2.2,125.8,0,125.3z
			"/>
		<path class="st0" d="M212.1,128.5c1.9-2.2,4.8-3.6,7.8-3.5h25.3c3.5,0.1,7.1-0.1,10.6,0.1c-1,0.7-2.3,1-3.4,1.6
			c-3.9,1.8-7.2,4.7-9.3,8.4c-3.4,5.9-4.5,12.6-5.5,19.2c-1,6.5-1,13.2-3.1,19.5c-1.4,4.4-3.6,8.9-7.3,11.8
			c-11.6,0.1-23.2,0-34.8,0.1c-0.8,0-1.5,0-2.3-0.1c1.7-0.7,3.2-1.9,4.3-3.3c2.3-3,3.8-6.6,4.9-10.2c1.6-4.9,2.7-9.9,3.6-15
			c1.1-6.5,2.3-12.9,4.3-19.2c0.6-1.8,1-3.6,2.2-5.2C210.3,131.2,210.9,129.7,212.1,128.5z"/>
	</g>
</g>
</svg>
