<?xml version="1.0" encoding="utf-8"?>
<!-- Generator: Adobe Illustrator 21.1.0, SVG Export Plug-In . SVG Version: 6.00 Build 0)  -->
<svg version="1.1" baseProfile="tiny" id="Layer_1" xmlns="http://www.w3.org/2000/svg" xmlns:xlink="http://www.w3.org/1999/xlink"
	 x="0px" y="0px" viewBox="0 0 34 32" xml:space="preserve">
<g>
	<path fill="#4B576E" d="M3.2,2.5v27.1h27.5V2.5H3.2z M28.5,27.4H5.3V4.7h23.2C28.5,4.7,28.5,27.4,28.5,27.4z"/>
	<g>
		<path fill="#4B576E" d="M16.2,11.3c-0.7-0.6-1.7-0.9-3.2-0.9c-1.4,0-3.2,0-3.2,0v11.1h2.3v-3.6c0,0,0.4,0,0.8,0
			c1.6-0.1,2.5-0.5,3.3-1.4c0.6-0.6,1-1.5,1-2.6S16.8,11.9,16.2,11.3z M12.9,16c-0.4,0-0.5,0-0.8,0v-3.8c0,0,0.5,0,1,0
			c1.2,0,1.8,0.9,1.8,1.9C14.9,15.2,14.2,16,12.9,16z"/>
		<path fill="#4B576E" d="M21.8,16.4c-1-0.4-1.3-0.6-1.3-0.9c0-0.4,0.4-0.7,1-0.7c0.7,0,1.8,0.5,2.1,0.7v-1.9
			c-0.5-0.3-1.3-0.6-2.2-0.6c-2,0-3.3,1.2-3.3,2.7c0,1,0.6,1.7,2.3,2.2c1,0.3,1.2,0.8,1.2,1.2s-0.3,0.7-1.1,0.7
			c-0.8,0-1.9-0.4-2.3-0.7l0,0v1.8c0.6,0.3,1.5,0.7,2.3,0.7c2.4,0.1,3.6-1.2,3.6-2.7C24,17.7,23.4,16.9,21.8,16.4L21.8,16.4z"/>
	</g>
</g>
</svg>
