<?xml version="1.0" encoding="utf-8"?>
<!-- Generator: Adobe Illustrator 21.1.0, SVG Export Plug-In . SVG Version: 6.00 Build 0)  -->
<svg version="1.1" baseProfile="tiny" id="Layer_1" xmlns="http://www.w3.org/2000/svg" xmlns:xlink="http://www.w3.org/1999/xlink"
	 x="0px" y="0px" viewBox="0 0 34 32" xml:space="preserve">
<path fill="#4B576E" d="M28.8,18.6c-0.3-0.3-0.7-0.2-1.1-0.2c-0.8,0.1-1.7,0.3-2.6,0c1.4-2.3,2.6-4.8,3.2-7.4c0.2-1,0.4-2,0.4-3
	c0-0.6-0.1-1.2-0.5-1.7c-0.9-1.1-2.1-2-3.5-2.4c-1.7-0.5-3.6-0.3-5.3,0.2c-0.1,0-0.3,0-0.4-0.1c-1.6-0.3-3.3-0.2-4.6,0.7
	c-1.6-0.6-3.3-0.9-5.1-0.8C8.1,4.2,6.8,4.8,6.1,5.9C5.2,7.2,5,9,5.2,10.6c0.3,2.1,0.8,4.2,1.5,6.2c0.4,1.3,0.9,2.5,1.7,3.6
	c0.4,0.5,0.9,1.1,1.6,1.2c0.6,0.1,1.2-0.3,1.6-0.8c0.7-0.8,1.3-1.6,2-2.3c0.5,0.2,1,0.4,1.5,0.4c-0.3,0.3-0.5,0.8-0.9,0.9
	c-0.6,0.2-1.3,0.2-1.8,0.6c-0.3,0.2-0.3,0.7,0,0.9c0.5,0.5,1.2,0.6,1.9,0.6c0.9,0.1,1.8-0.2,2.5-0.8c0,1.5,0,2.9,0.2,4.4
	c0.1,0.9,0.4,1.7,1.1,2.3c0.6,0.5,1.5,0.6,2.3,0.5c0.8-0.1,1.5-0.4,2.1-0.9c0.6-0.6,0.9-1.4,1-2.2c0.2-1.4,0.4-2.9,0.6-4.3
	c1.6,0.3,3.5,0,4.7-1.2C28.8,19.4,29,18.9,28.8,18.6z M25.2,4.9c1,0.4,1.8,1,2.5,1.8C28,7.1,28,7.6,28,8.1c0,1.1-0.2,2.3-0.5,3.4
	c-0.6,2-1.4,4-2.5,5.8c-0.1,0.2-0.2,0.4-0.3,0.5c0,0,0-0.2,0-0.2c0.1-0.3,0.3-0.7,0.4-1c0.3-1,0-2.1-0.1-3.2c-0.1-1,0.2-2,0.2-2.9
	c0-0.5-0.2-0.9-0.3-1.4c-0.7-1.5-1.7-2.8-3.1-3.8c-0.3-0.2-0.7-0.4-1-0.6C22.2,4.3,23.8,4.3,25.2,4.9L25.2,4.9z M24.3,13.3
	c0.1,1.2,0.4,2.4-0.1,3.5c-0.7-1.5-1.7-2.9-2-4.5c-0.1-0.5-0.1-1.2,0.3-1.5c0.6-0.4,1.4-0.3,2-0.3C24.5,11.4,24.2,12.4,24.3,13.3
	L24.3,13.3z M11,20.3c-0.3,0.3-0.6,0.7-1.1,0.6c-0.5-0.2-0.9-0.6-1.2-1.1C8,18.5,7.5,17.1,7,15.6c-0.5-1.7-0.9-3.4-1.2-5.2
	c-0.1-1.3,0-2.8,0.6-3.9C7,5.6,8,5.1,9,4.9c1.6-0.3,3.2,0,4.8,0.5c-0.7,0.7-1.2,1.6-1.5,2.6c-0.4,1.3-0.6,2.6-0.5,4
	c0.1,0.9,0,1.9-0.1,2.8c-0.2,1.2,0.3,2.5,1.2,3.3C12.3,18.8,11.6,19.5,11,20.3L11,20.3z M12.4,15.9c-0.2-0.7,0-1.4,0.1-2.1
	c0.1-0.8,0-1.6,0-2.4c0.7-0.5,1.6-0.9,2.5-0.8c0.5,0,0.9,0.3,1,0.8c0.4,1.6,0.5,3.4-0.2,5c-0.3,0.6-0.5,1.2-0.7,1.8
	C13.7,18.2,12.6,17.1,12.4,15.9L12.4,15.9z M16.4,20.2c-0.8,1.1-2.4,1.3-3.6,0.7c0.6-0.3,1.3-0.2,1.8-0.6c0.5-0.3,0.8-0.9,1.3-1.3
	C16.5,19,16.9,19.8,16.4,20.2L16.4,20.2z M23.4,18.9c-0.3,0.5-0.2,1.1-0.3,1.7c-0.2,1.5-0.4,3.1-0.6,4.6c-0.1,0.7-0.4,1.5-1.1,1.9
	c-0.7,0.4-1.5,0.6-2.3,0.5c-0.8-0.1-1.2-0.8-1.5-1.5c-0.2-0.6-0.2-1.2-0.2-1.8c-0.1-1.4-0.1-2.9,0-4.3c0-0.6-0.3-1.1-0.8-1.4
	c-0.2-0.1-0.5-0.2-0.8-0.2c0.2-1.1,0.9-2,1.1-3c0.3-1.3,0.1-2.7-0.2-4c-0.1-0.6-0.6-1.2-1.3-1.4c-1-0.3-2,0.1-2.9,0.6
	c0.1-1.5,0.5-3,1.4-4.1c0.7-0.9,1.7-1.5,2.8-1.6c1.8-0.2,3.7,0.3,5.1,1.4c1.2,0.9,2.1,2.2,2.6,3.6c-0.8,0-1.8-0.1-2.5,0.5
	c-0.6,0.5-0.7,1.4-0.6,2.1c0.3,1.8,1.4,3.3,2.1,4.8c0.2,0.4,0.5,0.7,0.7,1C23.9,18.4,23.6,18.6,23.4,18.9L23.4,18.9z M25.6,20.2
	c-0.6,0.1-1.1,0.1-1.7-0.1c0-0.3,0-0.7,0.2-0.9c0.2-0.1,0.5-0.3,0.7-0.1c0.9,0.5,2,0.3,3,0.1C27.2,19.8,26.4,20.1,25.6,20.2z
	 M22.7,11c-0.2,0.2,0,0.4,0.2,0.5c0.4,0.2,1-0.1,1-0.6C23.5,10.8,23,10.8,22.7,11L22.7,11z M15.4,11.8c0.2-0.1,0.4-0.4,0.2-0.5
	c-0.3-0.2-0.7-0.3-1.1-0.2c-0.1,0-0.2,0.1-0.2,0.3C14.4,11.8,15,12,15.4,11.8L15.4,11.8z"/>
</svg>
