<?xml version="1.0" encoding="utf-8"?>
<!-- Generator: Adobe Illustrator 21.1.0, SVG Export Plug-In . SVG Version: 6.00 Build 0)  -->
<svg version="1.1" baseProfile="tiny" id="Layer_1" xmlns="http://www.w3.org/2000/svg" xmlns:xlink="http://www.w3.org/1999/xlink"
	 x="0px" y="0px" viewBox="0 0 34 32" xml:space="preserve">
<path fill="#4B576E" d="M8.1,27.1h11.1c0,0-2.5-5.6-1.8-10.7c0.6-5.1,4.7-7.5,7-7.7c2.3-0.2,3.5,1.2,3.5,1.2l0.5-0.7
	c0,0-3.3-3.3-7.5-3s-7,3.1-8.8,6.5c-1.8,3.3-2.8,5.7-3.5,9.2S8.1,27.1,8.1,27.1L8.1,27.1z M5.9,21.6l2.2,0.2l-0.4,2.2l-2-0.2
	L5.9,21.6L5.9,21.6z M9.3,17l0.6-1.6L8,14.6l-0.6,1.7L9.3,17z M12,11.4l1.1-1.3l-1.5-1l-1.2,1.3L12,11.4z M15,6.2l1,1.2l1.4-0.8
	l-1-1.1C16.4,5.5,15,6.2,15,6.2z M19.9,4.9l0.2,1.2l1.7,0l-0.2-1.1C21.6,4.9,19.9,4.9,19.9,4.9z M25.6,6.2l0,0.7l1.2,0.6L27,7.2
	L25.6,6.2L25.6,6.2z M25.4,9.4V10l1.1,0.1V9.6L25.4,9.4L25.4,9.4z M21.8,9.9l0.5,1l0.8-0.6L23,9.6L21.8,9.9L21.8,9.9z M20.1,11.2
	l0.8,1.2l-0.5,0.9L19.2,12C19.2,12,20.1,11.2,20.1,11.2z M18.4,14.6l-0.5,1.1l1.4,1.2l0.3-1.4L18.4,14.6L18.4,14.6z M17.9,18.4
	l-0.1,1.5l1.7,0.7l-0.1-1.4L17.9,18.4L17.9,18.4z M18.4,23.6l0.4,1.5l2.2,0.1l-0.8-1.6L18.4,23.6L18.4,23.6z"/>
</svg>
