<?xml version="1.0" encoding="utf-8"?>
<!-- Generator: Adobe Illustrator 24.1.0, SVG Export Plug-In . SVG Version: 6.00 Build 0)  -->
<svg version="1.1" id="Layer_1" xmlns="http://www.w3.org/2000/svg" xmlns:xlink="http://www.w3.org/1999/xlink" x="0px" y="0px"
	 viewBox="0 0 34 32" style="enable-background:new 0 0 34 32;" xml:space="preserve">
<style type="text/css">
	.st0{fill:#4B576E;}
	.st1{fill:#FFFFFF;}
</style>
<g>
	<path class="st0" d="M26,11.5c-0.3-0.1-0.6-0.2-0.9-0.3c0.1-0.2,0.1-0.4,0.1-0.6c0.7-3.4,0.2-6.2-1.3-7.1c-1.5-0.9-4,0-6.4,2.2
		c-0.2,0.2-0.5,0.4-0.7,0.7c-0.2-0.1-0.3-0.3-0.5-0.4c-2.6-2.3-5.2-3.3-6.8-2.4C8,4.4,7.5,7,8.2,10.2c0.1,0.3,0.1,0.6,0.2,1
		c-0.4,0.1-0.7,0.2-1.1,0.3c-3,1.1-5,2.7-5,4.5c0,1.8,2.1,3.6,5.3,4.7c0.3,0.1,0.5,0.2,0.8,0.2c-0.1,0.3-0.2,0.7-0.2,1
		c-0.6,3.2-0.1,5.7,1.4,6.6c1.5,0.9,4.1,0,6.7-2.2c0.2-0.2,0.4-0.4,0.6-0.6c0.3,0.2,0.5,0.5,0.8,0.7c2.4,2.1,4.9,3,6.4,2.1
		c1.5-0.9,2-3.6,1.4-6.9c0-0.3-0.1-0.5-0.2-0.8c0.2-0.1,0.4-0.1,0.5-0.2c3.3-1.1,5.4-2.9,5.4-4.7C31.1,14.2,29.1,12.6,26,11.5
		L26,11.5z"/>
	<path class="st1" d="M25.3,19.5c-0.2,0.1-0.3,0.1-0.5,0.2c-0.4-1.2-0.9-2.4-1.5-3.6c0.6-1.2,1-2.4,1.4-3.6c0.3,0.1,0.6,0.2,0.9,0.3
		c2.7,0.9,4.3,2.3,4.3,3.3C29.9,17.1,28.1,18.5,25.3,19.5L25.3,19.5z M24.1,21.8c0.3,1.5,0.3,2.8,0.1,3.8c-0.2,0.9-0.5,1.5-0.9,1.8
		c-0.9,0.5-2.8-0.2-4.9-2c-0.2-0.2-0.5-0.4-0.7-0.7c0.8-0.9,1.6-1.9,2.4-3.1c1.4-0.1,2.7-0.3,3.9-0.6C24,21.4,24.1,21.6,24.1,21.8
		L24.1,21.8z M12.1,27.3c-0.9,0.3-1.6,0.3-2,0.1c-0.9-0.5-1.3-2.5-0.8-5.3c0.1-0.3,0.1-0.6,0.2-1c1.2,0.3,2.5,0.4,3.9,0.6
		c0.8,1.1,1.6,2.2,2.5,3.1c-0.2,0.2-0.4,0.3-0.5,0.5C14.2,26.3,13.1,27,12.1,27.3L12.1,27.3z M8,19.5c-1.4-0.5-2.6-1.1-3.4-1.8
		c-0.7-0.6-1.1-1.2-1.1-1.7c0-1,1.6-2.4,4.2-3.3c0.3-0.1,0.7-0.2,1-0.3c0.4,1.2,0.8,2.4,1.4,3.6c-0.6,1.3-1.1,2.5-1.4,3.7
		C8.5,19.6,8.2,19.5,8,19.5z M9.4,10c-0.5-2.8-0.2-4.9,0.7-5.4c1-0.6,3.1,0.2,5.3,2.2c0.1,0.1,0.3,0.3,0.4,0.4
		c-0.8,0.9-1.7,1.9-2.5,3c-1.4,0.1-2.7,0.3-3.8,0.6C9.5,10.6,9.4,10.3,9.4,10L9.4,10z M21.8,13.1c-0.3-0.5-0.6-1-0.9-1.4
		c0.9,0.1,1.8,0.3,2.6,0.5c-0.2,0.8-0.6,1.6-0.9,2.5C22.4,14,22.1,13.5,21.8,13.1L21.8,13.1z M16.7,8.1c0.6,0.6,1.1,1.3,1.7,2
		c-1.1-0.1-2.3-0.1-3.4,0C15.6,9.4,16.2,8.7,16.7,8.1L16.7,8.1z M11.6,13.1c-0.3,0.5-0.6,1-0.8,1.5c-0.4-0.8-0.7-1.7-0.9-2.5
		c0.8-0.2,1.7-0.3,2.6-0.4C12.2,12.1,11.9,12.6,11.6,13.1z M12.5,20.4c-0.9-0.1-1.8-0.2-2.7-0.4c0.3-0.8,0.6-1.7,0.9-2.5
		c0.3,0.5,0.5,1,0.8,1.5C11.9,19.4,12.2,19.9,12.5,20.4z M16.8,23.9c-0.6-0.6-1.2-1.3-1.7-2.1c0.6,0,1.1,0,1.7,0c0.6,0,1.2,0,1.7,0
		C17.9,22.6,17.3,23.3,16.8,23.9z M22.6,17.4c0.4,0.9,0.7,1.7,1,2.5c-0.8,0.2-1.7,0.3-2.7,0.5c0.3-0.5,0.6-1,0.9-1.5
		C22.1,18.4,22.4,17.9,22.6,17.4L22.6,17.4z M20.7,18.3c-0.4,0.8-0.9,1.5-1.4,2.2c-0.9,0.1-1.7,0.1-2.6,0.1c-0.9,0-1.8,0-2.6-0.1
		c-0.5-0.7-1-1.5-1.4-2.2c-0.4-0.8-0.8-1.5-1.2-2.3c0.4-0.8,0.8-1.6,1.2-2.3v0c0.4-0.8,0.9-1.5,1.4-2.2c0.9-0.1,1.7-0.1,2.6-0.1
		c0.9,0,1.8,0,2.6,0.1c0.5,0.7,1,1.5,1.4,2.2c0.4,0.8,0.9,1.5,1.2,2.3C21.6,16.8,21.2,17.6,20.7,18.3L20.7,18.3z M23.3,4.6
		c1,0.6,1.3,2.8,0.7,5.7c0,0.2-0.1,0.4-0.1,0.6c-1.2-0.3-2.5-0.5-3.9-0.6c-0.8-1.1-1.6-2.2-2.4-3C17.8,7,18,6.8,18.3,6.6
		C20.4,4.8,22.4,4.1,23.3,4.6L23.3,4.6z"/>
	<path class="st0" d="M16.7,13.4c1.4,0,2.6,1.2,2.6,2.6c0,1.4-1.2,2.6-2.6,2.6c-1.4,0-2.6-1.2-2.6-2.6
		C14.2,14.5,15.3,13.4,16.7,13.4"/>
</g>
</svg>
