<?xml version="1.0" encoding="utf-8"?>
<!-- Generator: Adobe Illustrator 21.1.0, SVG Export Plug-In . SVG Version: 6.00 Build 0)  -->
<svg version="1.1" baseProfile="tiny" id="Layer_1" xmlns="http://www.w3.org/2000/svg" xmlns:xlink="http://www.w3.org/1999/xlink"
	 x="0px" y="0px" viewBox="0 0 34 32" xml:space="preserve">
<path fill="#4B576E" d="M11.9,24.6c5,0.7,9.9,1.4,14.9,2c-1.7-2.8-3.4-5.6-5-8.4C18.5,20.4,15.2,22.5,11.9,24.6L11.9,24.6z
	 M28.2,8.9c-0.4,0.7-0.9,1.3-1.3,2c-1.5,2.3-3,4.5-4.5,6.8c-0.1,0.1-0.2,0.2-0.1,0.4c1.5,2.4,2.9,4.8,4.4,7.2
	c0.2,0.4,0.5,0.8,0.8,1.1C27.7,20.6,28,14.8,28.2,8.9C28.3,8.9,28.2,8.9,28.2,8.9L28.2,8.9z M8.3,16.4c0.1,0.1,0.2,0.1,0.3,0.1
	c1.4-0.7,2.8-1.4,4.2-2.1c0.4-0.2,0.8-0.7,1.2-1c1.3-1.2,2.5-2.3,3.8-3.5C17.9,9.8,18,9.7,18,9.6c0.5-0.9,0.9-1.8,1.4-2.7
	c-0.6-0.2-1.1-0.4-1.6-0.6c-0.1,0-0.2,0-0.3,0.1C16.3,7,15,7.7,13.8,8.4c-0.6,0.4-1.1,0.9-1.6,1.4c-0.9,0.8-1.7,1.6-2.5,2.3
	c-0.2,0.2-0.4,0.4-0.6,0.7c-0.6,0.8-1.1,1.7-1.7,2.6C7.7,15.8,8,16.1,8.3,16.4L8.3,16.4z M13.4,15.3c-0.7,2.9-1.4,5.9-2.1,8.9
	c3.4-2.2,6.6-4.3,9.9-6.4C18.6,16.9,16,16.1,13.4,15.3L13.4,15.3z M27.4,8.9c-2.8,0.5-5.6,0.9-8.4,1.4c1,2.3,1.9,4.6,2.8,6.9
	C23.7,14.5,25.5,11.7,27.4,8.9L27.4,8.9z M13.5,14.7c2.6,0.8,5,1.6,7.6,2.5c-1-2.3-1.9-4.6-2.8-6.9C16.7,11.7,15.2,13.2,13.5,14.7z
	 M8.4,18.1c-0.9,2.2-1.8,4.2-2.7,6.4c1.7-0.1,3.4-0.1,5.1-0.2C10,22.3,9.2,20.2,8.4,18.1L8.4,18.1z M10.9,22.9
	C10.9,22.9,10.9,22.9,10.9,22.9c0.7-2.5,1.3-5.1,1.9-7.7c-1.4,0.7-2.7,1.4-4.1,2.1C9.4,19.1,10.2,21,10.9,22.9L10.9,22.9z M26.3,8.5
	c-0.8-0.2-1.6-0.4-2.4-0.6c-1.2-0.3-2.3-0.6-3.5-0.9c-0.1,0-0.3-0.1-0.3,0.1c-0.4,0.8-0.8,1.7-1.3,2.5c0,0,0,0.1,0,0.1
	C21.3,9.3,23.8,8.9,26.3,8.5C26.3,8.5,26.3,8.5,26.3,8.5z M21.6,6.6c2.2,0.6,4.4,1.2,6.6,1.8c-0.4-1.1-0.7-2.1-1.1-3.1
	C25.3,5.7,23.5,6.1,21.6,6.6C21.6,6.6,21.6,6.6,21.6,6.6L21.6,6.6z M11.5,25.1c-0.8-0.1-1.7,0-2.5,0c-0.7,0-1.4,0-2,0.1
	c-0.1,0-0.1,0-0.2,0.1c5.6,0.5,11.3,1,16.9,1.6c0,0,0-0.1,0-0.1c-1.8-0.2-3.6-0.5-5.4-0.7C16,25.7,13.7,25.4,11.5,25.1L11.5,25.1z
	 M5.9,22.5c0.7-1.7,1.5-3.4,2.2-5.1c0.1-0.2,0.1-0.3-0.1-0.4c-0.3-0.3-0.6-0.6-0.9-1c-0.5,2.2-0.9,4.4-1.3,6.6c0,0,0,0,0,0
	C5.8,22.7,5.8,22.6,5.9,22.5L5.9,22.5z M20.2,6.1c1.2-0.3,2.5-0.6,3.7-0.8c0.1,0,0.2,0,0.2-0.1c0,0,0,0,0-0.1
	c-1.7,0.2-3.5,0.5-5.3,0.7C19.3,6.1,19.7,6.3,20.2,6.1L20.2,6.1z"/>
</svg>
