<?xml version="1.0" encoding="utf-8"?>
<!-- Generator: Adobe Illustrator 24.1.0, SVG Export Plug-In . SVG Version: 6.00 Build 0)  -->
<svg version="1.1" xmlns="http://www.w3.org/2000/svg" xmlns:xlink="http://www.w3.org/1999/xlink" x="0px" y="0px"
	 viewBox="0 0 34 32" style="enable-background:new 0 0 34 32;" xml:space="preserve">
<style type="text/css">
	.st0{fill:#4B576E;}
</style>
<g id="Layer_1">
	<path class="st0" d="M4.2,3.2v25.6h25.6V3.2H4.2z M18.8,17.1h-3.3v9.5h-2.4v-9.5H9.8l0-2.1l4.5,0c2.5,0,4.5,0,4.5,0
		c0,0,0,0.5,0,1.1V17.1z M27.5,24.6c-0.4,1.1-1.4,1.8-2.8,2c-0.4,0.1-1.5,0.1-2,0c-1-0.2-2-0.7-2.6-1.4c-0.2-0.3-0.7-0.9-0.7-1
		l0.2-0.2l1-0.6l0.7-0.4l0.2,0.2c0.2,0.3,0.7,0.8,1,0.9c0.8,0.4,1.9,0.4,2.5-0.1c0.2-0.2,0.3-0.4,0.3-0.8c0-0.3,0-0.4-0.2-0.7
		c-0.2-0.3-0.6-0.5-1.8-1c-1.3-0.6-1.9-0.9-2.4-1.5c-0.3-0.3-0.6-0.9-0.7-1.3c-0.1-0.4-0.1-1.3,0-1.6c0.3-1.3,1.2-2.2,2.6-2.4
		c0.4-0.1,1.5-0.1,1.9,0.1l0,0c0.7,0.2,1.2,0.4,1.6,0.9c0.2,0.3,0.6,0.7,0.6,0.8c0,0-1.1,0.8-1.8,1.2c0,0-0.1-0.1-0.2-0.3
		c-0.3-0.5-0.7-0.7-1.2-0.7c-0.8-0.1-1.3,0.4-1.3,1c0,0.2,0,0.3,0.1,0.5c0.2,0.4,0.5,0.6,1.5,1c1.8,0.8,2.6,1.3,3.1,2
		C27.7,22.3,27.9,23.6,27.5,24.6z"/>
</g>
<g id="Layer_2">
</g>
</svg>
