<?xml version="1.0" encoding="utf-8"?>
<!-- Generator: Adobe Illustrator 24.1.0, SVG Export Plug-In . SVG Version: 6.00 Build 0)  -->
<svg version="1.1" id="Layer_1" xmlns="http://www.w3.org/2000/svg" xmlns:xlink="http://www.w3.org/1999/xlink" x="0px" y="0px"
	 viewBox="0 0 34 32" style="enable-background:new 0 0 34 32;" xml:space="preserve">
<style type="text/css">
	.st0{fill:#4B576E;}
</style>
<g>
	<path class="st0" d="M3.2,2.5v27h27.6v-27C30.8,2.5,3.2,2.5,3.2,2.5z M28.7,27.4H5.3V4.6h23.4V27.4z"/>
</g>
<path class="st0" d="M23.2,14.2c-0.2-0.1-0.4-0.1-0.6-0.1c-1.4,0-2.3,1.1-2.3,2.9c0,2.1,1,2.9,2.2,2.9c0.3,0,0.6,0,0.8-0.1
	L23.2,14.2L23.2,14.2z M18.2,17.1c0-2.6,1.7-4.6,4.4-4.6c0.2,0,0.4,0,0.6,0V9.6c0-0.1,0.1-0.1,0.1-0.1h1.8c0.1,0,0.1,0,0.1,0.1v10.2
	c0,0.3,0,0.7,0.1,1.1c0,0.1,0,0.1-0.1,0.1c-0.9,0.4-1.9,0.6-2.9,0.6C19.9,21.6,18.2,20.1,18.2,17.1L18.2,17.1z M14.4,15.3l3.1,6.1
	c0.1,0.1,0,0.2-0.1,0.2h-1.9c-0.1,0-0.2,0-0.2-0.1c-0.7-1.5-1.4-3-2.2-4.6h0c-0.7,1.5-1.4,3.1-2.1,4.6c-0.1,0.1-0.1,0.1-0.2,0.1H8.9
	c-0.1,0-0.1-0.1-0.1-0.2l3.1-5.9l-3-5.8C8.8,9.5,8.9,9.4,9,9.4h1.9c0.1,0,0.2,0,0.2,0.1c0.7,1.5,1.4,2.9,2.1,4.4h0
	c0.6-1.5,1.4-3,2-4.4c0.1-0.1,0.1-0.1,0.2-0.1h1.8c0.1,0,0.1,0.1,0.1,0.2L14.4,15.3L14.4,15.3z"/>
</svg>
